<?xml version="1.0" encoding="utf-8"?>
<!-- Generator: Adobe Illustrator 24.3.0, SVG Export Plug-In . SVG Version: 6.00 Build 0)  -->
<svg version="1.1" id="Layer_1" xmlns="http://www.w3.org/2000/svg" xmlns:xlink="http://www.w3.org/1999/xlink" x="0px" y="0px"
	 viewBox="0 0 24 24" style="enable-background:new 0 0 24 24;" xml:space="preserve">
<style type="text/css">
	.st0{fill:#D14747;}
</style>
<path class="st0" d="M21.8,6.7h-19C1.9,6.7,1.1,6,1.1,5.1V4.2c0-0.9,0.7-1.6,1.6-1.6h19c0.9,0,1.6,0.7,1.6,1.6v0.9
	C23.4,6,22.7,6.7,21.8,6.7z"/>
<path class="st0" d="M21.8,14h-19c-0.9,0-1.6-0.7-1.6-1.6v-0.9c0-0.9,0.7-1.6,1.6-1.6h19c0.9,0,1.6,0.7,1.6,1.6v0.9
	C23.4,13.2,22.7,14,21.8,14z"/>
<path class="st0" d="M21.8,21.2h-19c-0.9,0-1.6-0.7-1.6-1.6v-0.9c0-0.9,0.7-1.6,1.6-1.6h19c0.9,0,1.6,0.7,1.6,1.6v0.9
	C23.4,20.5,22.7,21.2,21.8,21.2z"/>
</svg>
